<svg width="104" height="16" viewBox="0 0 104 16" fill="none" xmlns="http://www.w3.org/2000/svg">
<path d="M1.12 14V2.48H5.672C5.784 2.48 5.91733 2.48533 6.072 2.496C6.22667 2.50133 6.376 2.51733 6.52 2.544C7.144 2.64 7.66667 2.85333 8.088 3.184C8.51467 3.51467 8.83467 3.93333 9.048 4.44C9.26133 4.94133 9.368 5.49867 9.368 6.112C9.368 7.00267 9.136 7.776 8.672 8.432C8.208 9.08267 7.528 9.49067 6.632 9.656L6.088 9.744H2.544V14H1.12ZM7.976 14L5.704 9.312L7.112 8.88L9.608 14H7.976ZM2.544 8.392H5.624C5.72533 8.392 5.84 8.38667 5.968 8.376C6.10133 8.36533 6.22667 8.34667 6.344 8.32C6.712 8.23467 7.01067 8.08 7.24 7.856C7.47467 7.62667 7.64533 7.36 7.752 7.056C7.85867 6.74667 7.912 6.432 7.912 6.112C7.912 5.792 7.85867 5.48 7.752 5.176C7.64533 4.86667 7.47467 4.59733 7.24 4.368C7.01067 4.13867 6.712 3.984 6.344 3.904C6.22667 3.872 6.10133 3.85333 5.968 3.848C5.84 3.83733 5.72533 3.832 5.624 3.832H2.544V8.392ZM15.114 14.24C14.266 14.24 13.5247 14.0533 12.89 13.68C12.2607 13.3013 11.77 12.776 11.418 12.104C11.066 11.4267 10.89 10.6373 10.89 9.736C10.89 8.792 11.0633 7.976 11.41 7.288C11.7567 6.59467 12.2393 6.06133 12.858 5.688C13.482 5.30933 14.2127 5.12 15.05 5.12C15.9193 5.12 16.658 5.32 17.266 5.72C17.8793 6.12 18.338 6.69067 18.642 7.432C18.9513 8.17333 19.0847 9.056 19.042 10.08H17.602V9.568C17.586 8.50667 17.37 7.71467 16.954 7.192C16.538 6.664 15.9193 6.4 15.098 6.4C14.218 6.4 13.5487 6.68267 13.09 7.248C12.6313 7.81333 12.402 8.624 12.402 9.68C12.402 10.6987 12.6313 11.488 13.09 12.048C13.5487 12.608 14.202 12.888 15.05 12.888C15.6207 12.888 16.1167 12.7573 16.538 12.496C16.9593 12.2347 17.29 11.8587 17.53 11.368L18.898 11.84C18.562 12.6027 18.0553 13.1947 17.378 13.616C16.706 14.032 15.9513 14.24 15.114 14.24ZM11.922 10.08V8.936H18.306V10.08H11.922ZM23.1229 14.24C22.4775 14.24 21.9362 14.1227 21.4989 13.888C21.0669 13.648 20.7389 13.3333 20.5149 12.944C20.2962 12.5547 20.1869 12.128 20.1869 11.664C20.1869 11.2107 20.2722 10.8187 20.4429 10.488C20.6189 10.152 20.8642 9.87467 21.1789 9.656C21.4935 9.432 21.8695 9.256 22.3069 9.128C22.7175 9.016 23.1762 8.92 23.6829 8.84C24.1949 8.75467 24.7122 8.67733 25.2349 8.608C25.7575 8.53867 26.2455 8.472 26.6989 8.408L26.1869 8.704C26.2029 7.936 26.0482 7.368 25.7229 7C25.4029 6.632 24.8482 6.448 24.0589 6.448C23.5362 6.448 23.0775 6.568 22.6829 6.808C22.2935 7.04267 22.0189 7.42667 21.8589 7.96L20.5069 7.552C20.7149 6.79467 21.1175 6.2 21.7149 5.768C22.3122 5.336 23.0989 5.12 24.0749 5.12C24.8589 5.12 25.5309 5.26133 26.0909 5.544C26.6562 5.82133 27.0615 6.24267 27.3069 6.808C27.4295 7.07467 27.5069 7.36533 27.5389 7.68C27.5709 7.98933 27.5869 8.31467 27.5869 8.656V14H26.3229V11.928L26.6189 12.12C26.2935 12.8187 25.8375 13.3467 25.2509 13.704C24.6695 14.0613 23.9602 14.24 23.1229 14.24ZM23.3389 13.048C23.8509 13.048 24.2935 12.9573 24.6669 12.776C25.0455 12.5893 25.3495 12.3467 25.5789 12.048C25.8082 11.744 25.9575 11.4133 26.0269 11.056C26.1069 10.7893 26.1495 10.4933 26.1549 10.168C26.1655 9.83733 26.1709 9.584 26.1709 9.408L26.6669 9.624C26.2029 9.688 25.7469 9.74933 25.2989 9.808C24.8509 9.86667 24.4269 9.93067 24.0269 10C23.6269 10.064 23.2669 10.1413 22.9469 10.232C22.7122 10.3067 22.4909 10.4027 22.2829 10.52C22.0802 10.6373 21.9149 10.7893 21.7869 10.976C21.6642 11.1573 21.6029 11.384 21.6029 11.656C21.6029 11.8907 21.6615 12.1147 21.7789 12.328C21.9015 12.5413 22.0882 12.7147 22.3389 12.848C22.5949 12.9813 22.9282 13.048 23.3389 13.048ZM33.0589 14.24C32.2535 14.24 31.5629 14.04 30.9869 13.64C30.4109 13.2347 29.9655 12.688 29.6509 12C29.3415 11.312 29.1869 10.536 29.1869 9.672C29.1869 8.808 29.3415 8.032 29.6509 7.344C29.9655 6.656 30.4109 6.11467 30.9869 5.72C31.5629 5.32 32.2509 5.12 33.0509 5.12C33.8669 5.12 34.5522 5.31733 35.1069 5.712C35.6615 6.10667 36.0802 6.648 36.3629 7.336C36.6509 8.024 36.7949 8.80267 36.7949 9.672C36.7949 10.5307 36.6509 11.3067 36.3629 12C36.0802 12.688 35.6615 13.2347 35.1069 13.64C34.5522 14.04 33.8695 14.24 33.0589 14.24ZM33.2349 12.936C33.8162 12.936 34.2935 12.7973 34.6669 12.52C35.0402 12.2373 35.3149 11.8507 35.4909 11.36C35.6722 10.864 35.7629 10.3013 35.7629 9.672C35.7629 9.032 35.6722 8.46933 35.4909 7.984C35.3149 7.49333 35.0429 7.112 34.6749 6.84C34.3069 6.56267 33.8402 6.424 33.2749 6.424C32.6882 6.424 32.2029 6.568 31.8189 6.856C31.4402 7.144 31.1575 7.53333 30.9709 8.024C30.7895 8.51467 30.6989 9.064 30.6989 9.672C30.6989 10.2853 30.7922 10.84 30.9789 11.336C31.1655 11.8267 31.4455 12.216 31.8189 12.504C32.1975 12.792 32.6695 12.936 33.2349 12.936ZM35.7629 14V7.64H35.6029V2.48H37.0349V14H35.7629ZM42.4794 14V2.48H43.7754L48.1274 11.656L52.4554 2.48H53.7674V13.992H52.4154V5.608L48.5034 14H47.7434L43.8314 5.608V14H42.4794ZM59.6906 14.24C58.832 14.24 58.0906 14.0453 57.4666 13.656C56.848 13.2667 56.3706 12.728 56.0346 12.04C55.6986 11.352 55.5306 10.5627 55.5306 9.672C55.5306 8.76533 55.7013 7.97067 56.0426 7.288C56.384 6.60533 56.8666 6.07467 57.4906 5.696C58.1146 5.312 58.848 5.12 59.6906 5.12C60.5546 5.12 61.2986 5.31467 61.9226 5.704C62.5466 6.088 63.024 6.624 63.3546 7.312C63.6906 7.99467 63.8586 8.78133 63.8586 9.672C63.8586 10.5733 63.6906 11.368 63.3546 12.056C63.0186 12.7387 62.5386 13.2747 61.9146 13.664C61.2906 14.048 60.5493 14.24 59.6906 14.24ZM59.6906 12.888C60.5866 12.888 61.2533 12.5893 61.6906 11.992C62.128 11.3947 62.3466 10.6213 62.3466 9.672C62.3466 8.696 62.1253 7.92 61.6826 7.344C61.24 6.76267 60.576 6.472 59.6906 6.472C59.088 6.472 58.592 6.608 58.2026 6.88C57.8133 7.152 57.5226 7.528 57.3306 8.008C57.1386 8.488 57.0426 9.04267 57.0426 9.672C57.0426 10.6427 57.2666 11.4213 57.7146 12.008C58.1626 12.5947 58.8213 12.888 59.6906 12.888ZM65.62 14V5.36H66.892V7.448L66.684 7.176C66.7853 6.90933 66.916 6.664 67.076 6.44C67.2413 6.216 67.4253 6.032 67.628 5.888C67.852 5.70667 68.1053 5.568 68.388 5.472C68.6707 5.376 68.9587 5.32 69.252 5.304C69.5453 5.28267 69.82 5.30133 70.076 5.36V6.696C69.7773 6.616 69.4493 6.59467 69.092 6.632C68.7347 6.66933 68.404 6.8 68.1 7.024C67.8227 7.22133 67.6067 7.46133 67.452 7.744C67.3027 8.02667 67.1987 8.33333 67.14 8.664C67.0813 8.98933 67.052 9.32267 67.052 9.664V14H65.62ZM75.1765 14.24C74.3285 14.24 73.5872 14.0533 72.9525 13.68C72.3232 13.3013 71.8325 12.776 71.4805 12.104C71.1285 11.4267 70.9525 10.6373 70.9525 9.736C70.9525 8.792 71.1258 7.976 71.4725 7.288C71.8192 6.59467 72.3018 6.06133 72.9205 5.688C73.5445 5.30933 74.2752 5.12 75.1125 5.12C75.9818 5.12 76.7205 5.32 77.3285 5.72C77.9418 6.12 78.4005 6.69067 78.7045 7.432C79.0138 8.17333 79.1472 9.056 79.1045 10.08H77.6645V9.568C77.6485 8.50667 77.4325 7.71467 77.0165 7.192C76.6005 6.664 75.9818 6.4 75.1605 6.4C74.2805 6.4 73.6112 6.68267 73.1525 7.248C72.6938 7.81333 72.4645 8.624 72.4645 9.68C72.4645 10.6987 72.6938 11.488 73.1525 12.048C73.6112 12.608 74.2645 12.888 75.1125 12.888C75.6832 12.888 76.1792 12.7573 76.6005 12.496C77.0218 12.2347 77.3525 11.8587 77.5925 11.368L78.9605 11.84C78.6245 12.6027 78.1178 13.1947 77.4405 13.616C76.7685 14.032 76.0138 14.24 75.1765 14.24ZM71.9845 10.08V8.936H78.3685V10.08H71.9845Z" fill="#01966B"/>
<path d="M91 9.75H102.5M102.5 9.75L98 5.75M102.5 9.75L98 14.25" stroke="#01966B" stroke-width="2"/>
</svg>
